<svg xmlns="http://www.w3.org/2000/svg" viewBox="0 0 240 240" role="img" aria-label="YUTING YANG">
  <defs>
    <linearGradient id="yyGold" x1="28" y1="28" x2="210" y2="214" gradientUnits="userSpaceOnUse">
      <stop offset="0" stop-color="#d7b486"/>
      <stop offset="0.45" stop-color="#be8d50"/>
      <stop offset="1" stop-color="#8f6835"/>
    </linearGradient>
  </defs>
  <rect width="240" height="240" fill="none"/>
  <circle cx="128" cy="114" r="82" fill="none" stroke="url(#yyGold)" stroke-width="4"/>
  <path d="M54 91c-9 15-4 28 13 39 0-15-4-28-13-39Zm9 38c-18-3-30-13-36-31-6 19 2 34 25 46 3-4 7-9 11-15Zm3 18c-19-10-33-12-43-6 8 18 26 23 54 15-4-4-8-7-11-9Zm12 13c-19 3-31 9-37 18 17 12 35 8 55-13-6-1-12-3-18-5Zm-3-56c1-18 8-30 22-37-1 22-10 36-27 43 2-2 4-4 5-6Zm-9-7c-1-13 2-24 9-33 6 16 4 29-7 41-.7-3-1.3-5.7-2-8Zm7-23c5-18 14-30 27-37 4 14-2 25-18 35-3 .6-6 1.2-9 2Zm13-11c0-8 3-15 10-20 2 9-.5 15-7 20h-3Z" fill="url(#yyGold)" opacity=".9"/>
  <path d="M177 78l3.8 12.2L193 94l-12.2 3.8L177 110l-3.8-12.2L161 94l12.2-3.8L177 78Z" fill="url(#yyGold)"/>
  <text x="87" y="130" font-family="Georgia, 'Times New Roman', serif" font-size="108" font-weight="700" fill="url(#yyGold)">Y</text>
  <text x="127" y="153" font-family="Georgia, 'Times New Roman', serif" font-size="82" font-weight="700" fill="url(#yyGold)">Y</text>
  <path d="M75 151c13 9 29 10 48 2 20-9 33-34 57-33 13 1 19 9 15 22-2 7-8 14-18 20 7-8 11-16 11-23 0-8-5-12-14-11-18 1-32 23-51 33-22 12-38 8-48-10Z" fill="url(#yyGold)"/>
</svg>
