<svg xmlns="http://www.w3.org/2000/svg" viewBox="0 0 320 380" role="img" aria-label="YUTING YANG">
  <defs>
    <linearGradient id="yyGoldFull" x1="26" y1="28" x2="286" y2="326" gradientUnits="userSpaceOnUse">
      <stop offset="0" stop-color="#d8b58a"/>
      <stop offset="0.45" stop-color="#bf8d50"/>
      <stop offset="1" stop-color="#8e6938"/>
    </linearGradient>
  </defs>
  <rect width="320" height="380" fill="none"/>
  <g transform="translate(30 18)">
    <circle cx="140" cy="116" r="96" fill="none" stroke="url(#yyGoldFull)" stroke-width="4"/>
    <path d="M50 90c-10 17-5 33 14 45 0-17-5-32-14-45Zm10 44c-21-4-35-16-42-36-7 22 2 39 29 52 4-5 8-10 13-16Zm3 21c-22-12-38-14-50-7 10 21 31 27 63 18-5-4-9-8-13-11Zm14 15c-22 4-37 10-44 21 20 14 41 9 64-15-7-2-14-4-20-6Zm-4-65c1-20 9-34 25-43-1 25-12 42-31 50 2-2 4-5 6-7Zm-10-8c-1-15 3-28 11-39 7 18 4 33-8 47-1-3-2-6-3-8Zm8-27c6-21 16-35 31-43 5 17-2 30-20 41-4 1-8 1.4-11 2Zm15-13c0-9 4-17 11-23 3 10 0 18-8 23h-3Z" fill="url(#yyGoldFull)" opacity=".9"/>
    <path d="M197 74l4 13 13 4-13 4-4 13-4-13-13-4 13-4 4-13Z" fill="url(#yyGoldFull)"/>
    <text x="95" y="135" font-family="Georgia, 'Times New Roman', serif" font-size="126" font-weight="700" fill="url(#yyGoldFull)">Y</text>
    <text x="142" y="162" font-family="Georgia, 'Times New Roman', serif" font-size="96" font-weight="700" fill="url(#yyGoldFull)">Y</text>
    <path d="M74 158c16 10 35 11 57 2 23-10 39-40 67-39 15 1 22 10 18 25-3 9-10 17-22 24 9-10 13-19 13-27 0-9-6-14-16-13-21 1-37 27-59 39-26 14-45 10-58-11Z" fill="url(#yyGoldFull)"/>
  </g>
  <path d="M34 304h58" stroke="url(#yyGoldFull)" stroke-width="3" stroke-linecap="round"/>
  <circle cx="96" cy="304" r="4" fill="url(#yyGoldFull)"/>
  <path d="M228 304h58" stroke="url(#yyGoldFull)" stroke-width="3" stroke-linecap="round"/>
  <circle cx="224" cy="304" r="4" fill="url(#yyGoldFull)"/>
  <text x="160" y="316" text-anchor="middle" font-family="Georgia, 'Times New Roman', serif" font-size="24" letter-spacing="10" fill="#9a7040">YUTING YANG</text>
</svg>
